<?xml version="1.0" encoding="UTF-8" standalone="no"?>
<!-- Created with Inkscape (http://www.inkscape.org/) -->

<svg
   width="146"
   height="50"
   viewBox="0 0 38.629165 13.229167"
   version="1.1"
   id="svg5"
   inkscape:export-filename="flusity-b.png"
   inkscape:export-xdpi="96"
   inkscape:export-ydpi="96"
   inkscape:version="1.2.1 (9c6d41e410, 2022-07-14)"
   sodipodi:docname="flusity.svg"
   xmlns:inkscape="http://www.inkscape.org/namespaces/inkscape"
   xmlns:sodipodi="http://sodipodi.sourceforge.net/DTD/sodipodi-0.dtd"
   xmlns="http://www.w3.org/2000/svg"
   xmlns:svg="http://www.w3.org/2000/svg">
  <sodipodi:namedview
     id="namedview7"
     pagecolor="#ffffff"
     bordercolor="#000000"
     borderopacity="0.25"
     inkscape:showpageshadow="2"
     inkscape:pageopacity="0.0"
     inkscape:pagecheckerboard="0"
     inkscape:deskcolor="#d1d1d1"
     inkscape:document-units="mm"
     showgrid="false"
     inkscape:zoom="2.9006173"
     inkscape:cx="126.52479"
     inkscape:cy="64.986167"
     inkscape:window-width="1920"
     inkscape:window-height="1001"
     inkscape:window-x="-9"
     inkscape:window-y="-9"
     inkscape:window-maximized="1"
     inkscape:current-layer="layer1" />
  <defs
     id="defs2" />
  <g
     inkscape:label="Layer 1"
     inkscape:groupmode="layer"
     id="layer1">
    <g
       id="g790"
       transform="matrix(1.4123648,0,0,1.4123648,-15.970028,-2.6281091)">
      <path
         d="m 36.309105,2.5823965 c -0.194021,-0.00473 -21.8819,0.012951 -22.124975,0.012951 -0.643436,0 -0.976555,0.4104484 -0.976555,1.1267706 v 0.7498521 h 1.896467 v 0.5120941 h -1.896467 v 4.1699089 h -0.68633 V 4.9840639 h -0.95979 V 4.4719698 h 0.95979 V 3.6855395 c 0,-0.2347098 0.03396,-0.4465582 0.101875,-0.6355453 0.07149,-0.1920354 0.175154,-0.355113 0.310993,-0.4892329 0.135837,-0.137168 0.251211,-0.2483771 0.461012,-0.35983 0.2295,-0.1154841 0.504818,-0.1338031 0.772916,-0.1338031 0.257374,0 21.982864,-0.015267 22.145094,-0.0017 z"
         style="font-weight:300;font-size:9.42318px;font-family:'Nirmala UI';-inkscape-font-specification:'Nirmala UI Light';fill:#2b0000;stroke:#800000;stroke-width:0"
         id="path552"
         sodipodi:nodetypes="cssccccccccccscccscc" />
      <path
         d="M 15.443511,9.1539728 V 3.1683286 h 0.686331 v 5.9856442 z"
         style="font-weight:300;font-size:9.42318px;font-family:'Nirmala UI';-inkscape-font-specification:'Nirmala UI Light';fill:#2b0000;stroke:#800000;stroke-width:0"
         id="path554"
         sodipodi:nodetypes="ccccc" />
      <path
         d="M 21.491799,9.1539728 V 8.4669665 h -0.02145 q -0.557644,0.7817659 -1.731912,0.7817659 -1.957114,0 -1.957114,-1.7609479 V 5.1108993 h 0.686331 v 2.2821256 q 0,0.7264898 0.348526,1.0739416 0.35389,0.3474516 1.077754,0.3474516 0.353889,0 0.643435,-0.098708 0.294903,-0.102656 0.504019,-0.2842785 Q 21.255867,8.2458608 21.37383,7.9892204 21.491793,7.73258 21.491793,7.4206632 V 5.1108993 h 0.686331 v 4.0430735 z"
         style="font-weight:300;font-size:9.42318px;font-family:'Nirmala UI';-inkscape-font-specification:'Nirmala UI Light';fill:#2b0000;stroke:#800000;stroke-width:0"
         id="path556" />
      <path
         d="m 23.636581,8.4274833 q 0.155497,0.090811 0.337803,0.1618809 0.182307,0.07107 0.375337,0.1223977 0.193031,0.051328 0.386061,0.078966 0.198392,0.02369 0.375337,0.02369 1.222527,0 1.222527,-0.6751617 0,-0.1539843 -0.08579,-0.2645371 Q 26.162062,7.7602182 26.001204,7.669407 25.840345,7.5746474 25.615143,7.4956811 25.389941,7.4167148 25.105758,7.3298519 24.725058,7.2153508 24.451599,7.0969014 24.178139,6.9784519 24.001194,6.8402609 23.82425,6.6981216 23.738458,6.5322924 q -0.08579,-0.1697775 -0.08579,-0.3829865 0,-0.2684854 0.155496,-0.4777461 0.160859,-0.2092606 0.428957,-0.3553482 0.268097,-0.1460876 0.616625,-0.2211056 0.35389,-0.078966 0.73995,-0.078966 0.713141,0 1.243974,0.1974157 V 5.746578 q -0.616625,-0.2921753 -1.329765,-0.2921753 -0.257374,0 -0.471853,0.04738 -0.209116,0.04738 -0.35925,0.1342427 -0.150135,0.086863 -0.235926,0.2092607 -0.08043,0.1184494 -0.08043,0.264537 0,0.150036 0.06434,0.2645371 0.06434,0.1105528 0.198392,0.201364 0.139411,0.090811 0.353889,0.1737259 0.21984,0.082914 0.530834,0.1776741 0.396785,0.1184494 0.68633,0.2368989 0.289546,0.1145011 0.477215,0.2526921 0.187668,0.1342427 0.278821,0.3040202 0.09115,0.1658292 0.09115,0.3869349 0,0.2724336 -0.155497,0.4856426 -0.150134,0.2132089 -0.423593,0.3592962 -0.268099,0.1460877 -0.632712,0.2211056 -0.364613,0.075016 -0.79357,0.075016 -0.831103,0 -1.39947,-0.25664 z"
         style="font-weight:300;font-size:9.42318px;font-family:'Nirmala UI';-inkscape-font-specification:'Nirmala UI Light';fill:#2b0000;stroke:#800000;stroke-width:0"
         id="path558" />
      <path
         d="m 28.746526,4.0882858 q -0.198392,0 -0.343166,-0.1026562 -0.144772,-0.1026561 -0.144772,-0.2605887 0,-0.1539843 0.144772,-0.2526921 0.144774,-0.1026563 0.343166,-0.1026563 0.101875,0 0.193031,0.027638 0.09115,0.02369 0.155496,0.07107 0.06971,0.04738 0.107235,0.1145011 0.0429,0.063173 0.0429,0.1421393 0,0.075018 -0.03754,0.1421393 -0.03754,0.067121 -0.107236,0.1184494 -0.06971,0.04738 -0.160857,0.075018 -0.08579,0.027638 -0.193031,0.027638 z m -0.337803,5.065687 V 5.1108993 h 0.68633 v 4.0430735 z"
         style="font-weight:300;font-size:9.42318px;font-family:'Nirmala UI';-inkscape-font-specification:'Nirmala UI Light';fill:#2b0000;stroke:#800000;stroke-width:0"
         id="path560" />
      <path
         d="m 33.22376,9.1065938 q -0.35389,0.1302941 -0.772122,0.1302941 -1.329765,0 -1.329765,-1.129218 V 5.5531104 H 30.15672 V 5.1108993 h 0.965153 V 4.0922341 l 0.68633,-0.1658292 v 1.1844944 h 1.415557 v 0.4422111 h -1.415557 v 2.4755931 q 0,0.4106248 0.182307,0.5922472 0.182306,0.1816225 0.616624,0.1816225 0.321718,0 0.616626,-0.1421394 z"
         style="font-weight:300;font-size:9.42318px;font-family:'Nirmala UI';-inkscape-font-specification:'Nirmala UI Light';fill:#2b0000;stroke:#800000;stroke-width:0"
         id="path562" />
      <path
         d="m 35.947634,9.88836 c -0.214479,0.394831 -0.461129,0.687007 -0.739951,0.876526 -0.278822,0.192151 -0.616625,0.288226 -1.013409,0.288226 -0.196605,0 -20.385192,-0.01051 -20.515327,-0.01338 V 10.58589 c 0.177828,0.006 20.32431,0.0033 20.49924,0.0052 0.225203,0 0.42002,-0.05265 0.584454,-0.157932 0.168007,-0.102656 0.312781,-0.259273 0.434318,-0.4698494 L 35.674173,9.1341975 33.561562,5.1108649 h 0.761398 l 1.571053,3.202083 c 0.02145,0.042115 0.04111,0.090812 0.05898,0.1460876 0.02145,0.052644 0.04111,0.1052883 0.05898,0.1579325 h 0.02681 c 0.01788,-0.044748 0.03396,-0.089495 0.04826,-0.1342427 0.01788,-0.04738 0.04111,-0.098708 0.06971,-0.1539842 l 1.667568,-3.2178762 h 0.723864 z"
         style="font-weight:300;font-size:9.42318px;font-family:'Nirmala UI';-inkscape-font-specification:'Nirmala UI Light';fill:#2b0000;stroke:#800000;stroke-width:0"
         id="path564"
         sodipodi:nodetypes="ccsccccccccccccccccc" />
    </g>
  </g>
</svg>
